<?xml version="1.0" encoding="UTF-8" standalone="no"?>
<svg
   viewBox="0 0 512 512"
   version="1.1"
   id="svg4"
   sodipodi:docname="address-book-solid.svg"
   inkscape:version="1.2.2 (b0a8486541, 2022-12-01)"
   xmlns:inkscape="http://www.inkscape.org/namespaces/inkscape"
   xmlns:sodipodi="http://sodipodi.sourceforge.net/DTD/sodipodi-0.dtd"
   xmlns="http://www.w3.org/2000/svg"
   xmlns:svg="http://www.w3.org/2000/svg">
  <defs
     id="defs8" />
  <sodipodi:namedview
     id="namedview6"
     pagecolor="#ffffff"
     bordercolor="#666666"
     borderopacity="1.0"
     inkscape:showpageshadow="2"
     inkscape:pageopacity="0.0"
     inkscape:pagecheckerboard="0"
     inkscape:deskcolor="#d1d1d1"
     showgrid="false"
     inkscape:zoom="1.0744709"
     inkscape:cx="99.583902"
     inkscape:cy="279.2072"
     inkscape:window-width="1888"
     inkscape:window-height="1060"
     inkscape:window-x="32"
     inkscape:window-y="0"
     inkscape:window-maximized="1"
     inkscape:current-layer="svg4" />
  <!--! Font Awesome Pro 6.4.0 by @fontawesome - https://fontawesome.com License - https://fontawesome.com/license (Commercial License) Copyright 2023 Fonticons, Inc. -->
  <path
     d="M96 0C60.7 0 32 28.7 32 64V448c0 35.3 28.7 64 64 64H384c35.3 0 64-28.7 64-64V64c0-35.3-28.7-64-64-64H96zM208 288h64c44.2 0 80 35.8 80 80c0 8.8-7.2 16-16 16H144c-8.8 0-16-7.2-16-16c0-44.2 35.8-80 80-80zm-32-96a64 64 0 1 1 128 0 64 64 0 1 1 -128 0zM512 80c0-8.8-7.2-16-16-16s-16 7.2-16 16v64c0 8.8 7.2 16 16 16s16-7.2 16-16V80zM496 192c-8.8 0-16 7.2-16 16v64c0 8.8 7.2 16 16 16s16-7.2 16-16V208c0-8.8-7.2-16-16-16zm16 144c0-8.8-7.2-16-16-16s-16 7.2-16 16v64c0 8.8 7.2 16 16 16s16-7.2 16-16V336z"
     id="path2"
     style="fill:#231f20;fill-opacity:1" />
</svg>
